<?xml version="1.0" encoding="UTF-8" standalone="no"?>
<svg width="74px" height="29px" viewBox="0 0 74 29" version="1.1" xmlns="http://www.w3.org/2000/svg" xmlns:xlink="http://www.w3.org/1999/xlink" xmlns:sketch="http://www.bohemiancoding.com/sketch/ns">
    <!-- Generator: Sketch 3.4.2 (15857) - http://www.bohemiancoding.com/sketch -->
    <title>B22 (black)@1x</title>
    <desc>Created with Sketch.</desc>
    <defs>
        <path id="path-1" d="M0,0.0261263298 L73.4760957,0.0261263298 L73.4760957,28.3404255 L0,28.3404255"></path>
        <path id="path-3" d="M0,0.0261263298 L73.4760957,0.0261263298 L73.4760957,28.3404255 L0,28.3404255 L0,0.0261263298 Z"></path>
        <path id="path-5" d="M0,0.0261263298 L73.4760957,0.0261263298 L73.4760957,28.3404255 L0,28.3404255 L0,0.0261263298 Z"></path>
    </defs>
    <g id="Welcome" stroke="none" stroke-width="1" fill="none" fill-rule="evenodd" sketch:type="MSPage">
        <g id="03-profile" sketch:type="MSArtboardGroup" transform="translate(-80.000000, -67.000000)">
            <g id="B22-(black)" sketch:type="MSLayerGroup" transform="translate(80.000000, 67.000000)">
                <g id="Group-3">
                    <mask id="mask-2" sketch:name="Clip 2" fill="white">
                        <use xlink:href="#path-1"></use>
                    </mask>
                    <g id="Clip-2"></g>
                    <path d="M11.5522217,5.91407114 L11.512368,5.91407114 L11.4370887,5.91407114 L11.4335461,5.91407114 L11.4335461,0.243329122 L-4.42819146e-05,0.243329122 L-4.42819146e-05,17.1284661 L-4.42819146e-05,28.3406469 L11.4335461,28.3406469 L11.4353174,28.3406469 L11.4370887,28.3406469 L11.512368,28.3406469 L11.5522217,28.3406469 C17.9314743,28.3406469 23.103602,23.3195206 23.103602,17.1284661 C23.103602,10.9347547 17.9314743,5.91407114 11.5522217,5.91407114" id="Fill-1" fill="#4A4A4A" sketch:type="MSShapeGroup" mask="url(#mask-2)"></path>
                </g>
                <path d="M44.2498991,17.4827214 C44.2490134,17.483607 44.2481278,17.4849355 44.2472422,17.4858211 L36.9323126,28.3384328 L38.4259416,28.3384328 L44.6962608,28.3384328 L46.2071597,28.3384328 L46.2071597,26.8279767 L46.2071597,18.9931775 L46.2071597,17.4827214 L45.2280866,17.4827214 L44.2498991,17.4827214 Z" id="Fill-4" fill="#4A4A4A" sketch:type="MSShapeGroup"></path>
                <g id="Group-8">
                    <mask id="mask-4" sketch:name="Clip 7" fill="white">
                        <use xlink:href="#path-3"></use>
                    </mask>
                    <g id="Clip-7"></g>
                    <path d="M44.2282895,17.4857769 L44.2291751,17.4857769 L44.2473307,17.4857769 C44.4195874,17.2377981 44.5785594,16.9818487 44.7300036,16.7205854 C45.5983719,15.2207569 46.117356,13.5061612 46.1899783,11.6813035 C46.1992775,11.5334019 46.2045914,11.3868287 46.2045914,11.2406984 C46.2045914,11.2274138 46.2037057,11.2150149 46.2037057,11.2012875 C46.1820076,5.02484601 41.0196219,0.0258606383 34.653211,0.0258606383 C34.4898108,0.0258606383 34.3290674,0.0364882979 34.16611,0.042687766 C32.0255222,0.130365957 30.0346073,0.776881915 28.3492376,1.8449617 L29.1941366,3.09813989 L33.5426206,9.94810931 C33.7746578,10.2926226 33.8902336,10.7473979 33.8902336,11.2012875 C33.8902336,11.6551771 33.7746578,12.1099524 33.5426206,12.4549085 L30.3459092,17.4857769 L28.3129265,20.6111944 L23.9467297,27.0883101 C23.4813267,27.7768939 23.7815581,28.3406027 24.6127297,28.3406027 L35.4020182,28.3406027 L36.9319584,28.3383886 L44.2362602,17.5003899 L44.2282895,17.4857769 Z" id="Fill-6" fill="#4A4A4A" sketch:type="MSShapeGroup" mask="url(#mask-4)"></path>
                </g>
                <path d="M72.496934,17.4827214 L71.5187465,17.4827214 C71.5178609,17.483607 71.5169753,17.4849355 71.5160896,17.4858211 L64.2011601,28.3384328 L65.6939035,28.3384328 L71.9651082,28.3384328 L73.4760072,28.3384328 L73.4760072,26.8279767 L73.4760072,18.9931775 L73.4760072,17.4827214 L72.496934,17.4827214 Z" id="Fill-9" fill="#4A4A4A" sketch:type="MSShapeGroup"></path>
                <g id="Group-13">
                    <mask id="mask-6" sketch:name="Clip 12" fill="white">
                        <use xlink:href="#path-5"></use>
                    </mask>
                    <g id="Clip-12"></g>
                    <path d="M71.497137,17.4857769 L71.4980226,17.4857769 L71.5161782,17.4857769 C71.6884348,17.2377981 71.8474069,16.9818487 71.9988511,16.7205854 C72.8663338,15.2207569 73.3862035,13.5061612 73.4588258,11.6813035 C73.468125,11.5334019 73.4734388,11.3868287 73.4734388,11.2406984 C73.4734388,11.2274138 73.4725532,11.2150149 73.4725532,11.2012875 C73.4508551,5.02484601 68.2884694,0.0258606383 61.9220585,0.0258606383 C61.7577726,0.0258606383 61.5979149,0.0364882979 61.4349574,0.042687766 C59.2952553,0.130365957 57.3034548,0.776881915 55.6180851,1.8449617 L56.462984,3.09813989 L60.8114681,9.94810931 C61.0435053,10.2926226 61.1590811,10.7473979 61.1590811,11.2012875 C61.1590811,11.6551771 61.0435053,12.1099524 60.8114681,12.4549085 L57.6147566,17.4857769 L55.5817739,20.6111944 L51.2155771,27.0883101 C50.7501742,27.7768939 51.0504056,28.3406027 51.8815771,28.3406027 L62.6708657,28.3406027 L64.2008059,28.3383886 L71.5051077,17.5003899 L71.497137,17.4857769 Z" id="Fill-11" fill="#4A4A4A" sketch:type="MSShapeGroup" mask="url(#mask-6)"></path>
                </g>
            </g>
        </g>
    </g>
</svg>